<svg xmlns="http://www.w3.org/2000/svg" viewBox="0 0 22 22" fill="none" stroke="#ffffff">
  <title>Temp dial</title>
  <rect x="1.3" y="1.3" width="19.4" height="19.4" rx="0.4" stroke-width="0.45"/>
  <circle cx="3.2" cy="3.2" r="0.42" stroke-width="0.28"/>
  <circle cx="18.8" cy="3.2" r="0.42" stroke-width="0.28"/>
  <circle cx="3.2" cy="18.8" r="0.42" stroke-width="0.28"/>
  <circle cx="18.8" cy="18.8" r="0.42" stroke-width="0.28"/>
  <circle cx="11" cy="11" r="7.85" stroke-width="0.4"/>
  <line x1="6.47" y1="15.53" x2="5.66" y2="16.34" stroke-width="0.36"/>
  <line x1="4.15" y1="11.00" x2="3.45" y2="11.00" stroke-width="0.24"/>
  <line x1="6.47" y1="6.47" x2="5.66" y2="5.66" stroke-width="0.36"/>
  <line x1="11.00" y1="4.15" x2="11.00" y2="3.45" stroke-width="0.24"/>
  <line x1="15.53" y1="6.47" x2="16.34" y2="5.66" stroke-width="0.36"/>
  <line x1="17.85" y1="11.00" x2="18.55" y2="11.00" stroke-width="0.24"/>
  <line x1="15.53" y1="15.53" x2="16.34" y2="16.34" stroke-width="0.5"/>
  <g class="needle" data-cx="11" data-cy="11" data-start="135" data-sweep="270" data-rest="0.22" data-rate="0.007" transform="rotate(194 11 11)">
    <line x1="11" y1="11" x2="16.5" y2="11" stroke-width="0.42"/>
    <line x1="11" y1="11" x2="9.5" y2="11" stroke-width="0.32"/>
  </g>
  <circle cx="11" cy="11" r="0.75" stroke-width="0.35"/>
  <circle cx="11" cy="11" r="0.24" fill="#ffffff" stroke="none"/>
</svg>
