<svg xmlns="http://www.w3.org/2000/svg" viewBox="0 0 80 28" fill="none" stroke="#ffffff">
  <title>RGB board</title>
  <rect x="1.2" y="1.2" width="77.6" height="25.6" rx="0.5" stroke-width="0.45"/>
  <circle cx="3.1" cy="3.1" r="0.45" stroke-width="0.28"/>
  <circle cx="76.9" cy="3.1" r="0.45" stroke-width="0.28"/>
  <circle cx="3.1" cy="24.9" r="0.45" stroke-width="0.28"/>
  <circle cx="76.9" cy="24.9" r="0.45" stroke-width="0.28"/>
  <g class="fader" data-channel="r">
    <text class="rgb-label" x="6.2" y="8.7">R</text>
    <line class="track" x1="12.2" y1="7.4" x2="74.4" y2="7.4" stroke-width="0.4"/>
    <line x1="12.2" y1="6.2" x2="12.2" y2="8.6" stroke-width="0.28"/>
    <line x1="74.4" y1="6.2" x2="74.4" y2="8.6" stroke-width="0.28"/>
    <rect class="cap" x="13.4" y="5.9" width="5.2" height="3" stroke-width="0.4"/>
  </g>
  <g class="fader" data-channel="g">
    <text class="rgb-label" x="6.2" y="15.7">G</text>
    <line class="track" x1="12.2" y1="14.4" x2="74.4" y2="14.4" stroke-width="0.4"/>
    <line x1="12.2" y1="13.2" x2="12.2" y2="15.6" stroke-width="0.28"/>
    <line x1="74.4" y1="13.2" x2="74.4" y2="15.6" stroke-width="0.28"/>
    <rect class="cap" x="20.4" y="12.9" width="5.2" height="3" stroke-width="0.4"/>
  </g>
  <g class="fader" data-channel="b">
    <text class="rgb-label" x="6.3" y="22.7">B</text>
    <line class="track" x1="12.2" y1="21.4" x2="74.4" y2="21.4" stroke-width="0.4"/>
    <line x1="12.2" y1="20.2" x2="12.2" y2="22.6" stroke-width="0.28"/>
    <line x1="74.4" y1="20.2" x2="74.4" y2="22.6" stroke-width="0.28"/>
    <rect class="cap" x="13.4" y="19.9" width="5.2" height="3" stroke-width="0.4"/>
  </g>
</svg>
